<svg width="320" height="320" viewBox="0 0 320 320" fill="none" xmlns="http://www.w3.org/2000/svg">
<path d="M183.883 89.453V56.3628H134.013V90.883C117.519 97.2438 103.804 109.232 95.2952 124.727C86.786 140.223 84.0296 158.228 87.5134 175.559C90.9972 192.891 100.497 208.433 114.333 219.437C128.169 230.441 145.45 236.198 163.121 235.691C180.792 235.185 197.714 228.446 210.897 216.668C224.08 204.889 232.673 188.828 235.158 171.326C237.643 153.823 233.859 136.005 224.476 121.023C215.093 106.041 200.714 94.8582 183.883 89.453Z" fill="white"/>
<path d="M161.921 238.915C160.89 238.896 159.865 238.771 158.861 238.54C158.526 238.473 158.11 238.388 157.935 238.38L157.474 238.356C156.359 238.301 155.207 238.244 154.009 238.124C153.874 238.128 153.561 238.166 153.329 238.194C152.193 238.37 151.038 238.384 149.899 238.235C148.747 238.032 147.631 237.66 146.587 237.133C146.435 237.062 146.242 236.973 146.104 236.914C145.968 236.919 145.782 236.93 145.634 236.939C144.414 237.058 143.183 236.974 141.99 236.692C141.082 236.44 140.192 236.126 139.328 235.752C138.906 235.58 138.509 235.417 138.196 235.317C137.305 235.02 136.436 234.662 135.594 234.245C135.184 234.052 134.798 233.87 134.49 233.754C133.63 233.418 132.792 233.028 131.98 232.589C131.575 232.378 131.193 232.18 130.869 232.039C130.522 231.887 130.116 231.734 129.686 231.573C128.828 231.266 127.988 230.913 127.168 230.516C126.876 230.369 126.479 230.211 126.059 230.044C125.179 229.713 124.324 229.32 123.499 228.869C123.175 228.685 122.847 228.505 122.519 228.326C121.709 227.882 120.872 227.424 120.008 226.873C119.081 226.255 118.239 225.518 117.503 224.681C117.331 224.497 117.099 224.249 116.992 224.156C116.861 224.075 116.524 223.916 116.274 223.799C115.285 223.367 114.351 222.819 113.492 222.165C113.198 221.932 112.841 221.678 112.462 221.41C111.704 220.891 110.976 220.332 110.28 219.733C109.561 219.077 108.898 218.363 108.296 217.599C108.018 217.261 107.756 216.942 107.56 216.75C107.289 216.485 106.963 216.197 106.618 215.891C105.923 215.293 105.259 214.66 104.63 213.993C103.942 213.217 103.338 212.369 102.83 211.465C102.676 211.194 102.508 210.931 102.328 210.676C102.102 210.403 101.805 210.089 101.49 209.757C100.843 209.097 100.238 208.398 99.6766 207.664C99.4526 207.362 99.1756 207.027 98.882 206.672C98.2858 205.974 97.7274 205.244 97.2095 204.485C97.0303 204.215 96.7637 203.879 96.4816 203.523C95.8794 202.792 95.3295 202.021 94.8362 201.213C94.3731 200.403 93.9618 199.565 93.6045 198.703C93.4203 198.28 93.2464 197.881 93.0843 197.57C92.8916 197.2 92.6847 196.835 92.4784 196.469C92.0682 195.743 91.6032 194.919 91.1882 194.008C90.7821 193.071 90.4709 192.096 90.2593 191.097C90.1894 190.772 90.1032 190.452 90.0009 190.136C89.9466 190.003 89.7303 189.642 89.5726 189.378C88.998 188.48 88.5285 187.518 88.1734 186.512C87.8127 185.333 87.6512 184.103 87.6955 182.872C87.6951 182.687 87.6947 182.445 87.6876 182.312C87.6093 182.028 87.5285 181.745 87.448 181.462C87.1884 180.55 86.9199 179.608 86.6962 178.571C86.6316 178.273 86.5066 177.873 86.3745 177.451C86.0714 176.545 85.8359 175.618 85.6699 174.678C85.4438 173.27 85.268 171.966 85.133 170.692C85.0472 169.732 85.0389 168.767 85.1082 167.806C85.1306 167.368 85.1516 166.954 85.1364 166.667C85.127 166.525 85.0368 166.12 84.9708 165.824C84.7113 164.791 84.5694 163.732 84.5479 162.667C84.5641 161.689 84.6617 160.715 84.8397 159.753C84.9091 159.328 84.9745 158.926 84.9885 158.659C85.0028 158.39 84.9787 157.98 84.9532 157.547C84.8746 156.574 84.8785 155.596 84.9649 154.624C85.0737 153.707 85.2304 152.797 85.4345 151.897C85.5289 151.449 85.618 151.027 85.6774 150.657C85.7366 150.287 85.7818 149.853 85.8297 149.394C85.9107 148.476 86.0429 147.564 86.2255 146.661C86.4794 145.595 86.8638 144.564 87.3699 143.592C87.4922 143.34 87.6597 142.994 87.7003 142.867C87.738 142.728 87.7837 142.312 87.8203 141.977C87.9058 140.933 88.1058 139.902 88.417 138.902C88.7195 138.028 89.0718 137.171 89.4723 136.337C89.664 135.921 89.845 135.528 89.9784 135.188C90.366 134.2 90.7848 133.304 91.1901 132.438C91.3328 132.133 91.4757 131.827 91.6155 131.52C92.0067 130.689 92.4434 129.88 92.9237 129.097C93.1416 128.73 93.3482 128.38 93.5149 128.066C93.5585 127.938 93.631 127.654 93.6851 127.441C93.9356 126.297 94.3542 125.195 94.9274 124.173C95.5285 123.205 96.2601 122.324 97.1016 121.556C97.2755 121.386 97.5105 121.157 97.5976 121.054C97.811 120.732 98.0166 120.406 98.2224 120.081C98.6747 119.366 99.1872 118.557 99.787 117.75C100.382 116.95 101.001 116.249 101.547 115.63C101.823 115.318 102.1 115.007 102.366 114.685C103.227 113.646 104.093 112.692 104.91 111.803C104.976 111.688 105.082 111.48 105.163 111.322C105.689 110.197 106.398 109.168 107.263 108.277C107.945 107.628 108.671 107.028 109.436 106.479C109.802 106.206 110.148 105.948 110.395 105.73C110.711 105.451 111.017 105.16 111.325 104.869C111.927 104.3 112.61 103.654 113.389 103.035C114.186 102.425 115.04 101.892 115.938 101.443C116.245 101.288 116.544 101.118 116.834 100.933C117.588 100.411 118.371 99.933 119.18 99.5013C119.582 99.2784 119.963 99.0676 120.272 98.8705C120.395 98.7913 120.713 98.5063 120.945 98.2984C121.711 97.5724 122.556 96.9349 123.465 96.398C123.731 96.2472 123.998 96.0934 124.266 95.9388C125.125 95.4439 126.013 94.9319 126.984 94.4467C127.902 94.0085 128.861 93.6629 129.847 93.4151C130.168 93.3334 130.485 93.2355 130.796 93.1218C131.636 92.7673 132.494 92.4585 133.367 92.1967C133.805 92.0584 134.219 91.9272 134.573 91.7942C134.812 91.7042 135.169 91.5205 135.548 91.3259C136.41 90.8583 137.31 90.466 138.24 90.1534C138.531 90.0605 138.92 89.8963 139.332 89.7222C140.203 89.3341 141.1 89.0108 142.018 88.7547C143.053 88.5068 144.112 88.3782 145.176 88.3713C145.481 88.3609 145.898 88.3468 146.04 88.3192C147.295 88.0597 148.513 87.873 149.692 87.692L149.983 87.6475C150.256 87.6054 150.653 87.5008 151.074 87.3903C152.004 87.1248 152.953 86.9345 153.913 86.8212C154.284 86.7833 154.715 86.7158 155.171 86.6441C156.075 86.4879 156.987 86.3805 157.903 86.3224C158.324 86.3011 158.748 86.2627 159.173 86.2254C159.995 86.1533 160.926 86.0718 161.92 86.0718C162.945 86.0903 163.965 86.212 164.965 86.4351C165.282 86.5046 165.602 86.5582 165.924 86.5956C166.336 86.6164 166.748 86.6268 167.16 86.6376C167.997 86.6597 168.947 86.6851 169.931 86.7851C170.923 86.8864 171.843 87.0593 172.655 87.2122C173.068 87.2897 173.48 87.368 173.893 87.4318C174.242 87.4855 174.678 87.5214 175.138 87.5593C176.061 87.6186 176.979 87.7361 177.886 87.911C178.942 88.1525 179.965 88.5197 180.934 89.0047C181.138 89.0997 181.401 89.2223 181.568 89.2897C181.703 89.2905 181.903 89.288 182.059 89.2847C183.302 89.2179 184.548 89.3603 185.744 89.7059C186.706 90.0312 187.635 90.4496 188.517 90.9551C188.808 91.1216 189.108 91.2731 189.415 91.4089C190.392 91.7763 191.279 92.1763 192.137 92.563C192.459 92.7081 192.78 92.8532 193.103 92.994C193.478 93.1577 193.858 93.3119 194.237 93.4665C195.015 93.7831 195.897 94.1423 196.788 94.5877C197.665 95.0449 198.499 95.579 199.281 96.1839C199.621 96.4348 199.942 96.6719 200.156 96.7931C200.433 96.9498 200.819 97.1259 201.227 97.3123C202.092 97.6874 202.929 98.1237 203.732 98.6179C203.982 98.7767 204.232 98.9347 204.484 99.0921C205.331 99.6242 206.206 100.175 207.097 100.809C207.836 101.35 208.544 101.931 209.22 102.55C209.565 102.855 209.891 103.144 210.184 103.377C210.285 103.451 210.633 103.636 210.888 103.772C211.862 104.255 212.774 104.854 213.604 105.556C214.477 106.362 215.221 107.297 215.811 108.328C215.92 108.504 216.064 108.736 216.144 108.847C216.365 109.056 216.664 109.302 216.98 109.56C217.722 110.145 218.421 110.783 219.072 111.469C219.997 112.475 220.838 113.491 221.651 114.473L221.685 114.514C222.291 115.272 222.834 116.077 223.307 116.924C223.526 117.296 223.733 117.649 223.897 117.869C224.148 118.206 224.411 118.533 224.673 118.86C225.186 119.5 225.767 120.225 226.319 121.056C226.484 121.305 226.748 121.628 227.026 121.971C227.646 122.702 228.208 123.479 228.709 124.296C229.267 125.24 229.74 126.162 230.198 127.054C230.333 127.317 230.469 127.58 230.605 127.843C231.058 128.75 231.42 129.701 231.685 130.68C231.78 130.998 231.878 131.326 231.958 131.532C232.039 131.643 232.192 131.831 232.309 131.976C233.108 132.891 233.754 133.928 234.223 135.049C234.589 135.981 234.868 136.901 235.114 137.712C235.234 138.104 235.352 138.496 235.48 138.884C235.594 139.226 235.756 139.63 235.928 140.058C236.289 140.915 236.6 141.793 236.857 142.688C237.128 143.775 237.255 144.893 237.234 146.013C237.237 146.281 237.242 146.649 237.261 146.775C237.286 146.87 237.438 147.244 237.549 147.517C237.984 148.506 238.302 149.542 238.495 150.604C238.55 150.951 238.611 151.3 238.672 151.651C238.834 152.587 239.002 153.555 239.113 154.599C239.205 155.7 239.158 156.808 238.97 157.897C238.931 158.172 238.878 158.549 238.878 158.681C238.895 158.991 238.95 159.416 239.008 159.864C239.145 160.792 239.221 161.729 239.234 162.667C239.234 163.091 239.25 163.517 239.264 163.941C239.293 164.769 239.326 165.707 239.273 166.697C239.185 167.879 238.917 169.041 238.48 170.143C238.41 170.34 238.317 170.603 238.28 170.732C238.244 171.096 238.22 171.496 238.195 171.918C238.153 172.829 238.065 173.738 237.931 174.64C237.735 175.862 237.496 177.114 237.179 178.58C237.116 178.872 237.055 179.166 236.993 179.458C236.79 180.431 236.58 181.437 236.292 182.491C236.038 183.378 235.733 184.249 235.379 185.1C235.211 185.523 235.052 185.922 234.937 186.269C234.834 186.579 234.735 186.991 234.629 187.428C234.427 188.347 234.159 189.25 233.828 190.131C233.418 191.177 232.975 192.136 232.547 193.064L232.207 193.805C232.166 193.909 232.076 194.281 232.01 194.552C231.783 195.63 231.421 196.676 230.932 197.663C230.183 199.099 229.583 200.191 228.985 201.203C228.339 202.24 227.53 203.165 226.587 203.941C226.445 204.068 226.256 204.234 226.162 204.328C225.516 205.293 224.857 206.177 224.218 207.033L223.896 207.466C223.131 208.495 222.341 209.558 221.453 210.63C220.765 211.461 219.845 212.557 218.837 213.653C218.786 213.72 218.6 214.029 218.464 214.255C217.917 215.233 217.243 216.134 216.46 216.935C215.744 217.612 214.97 218.226 214.147 218.768C213.795 219.011 213.462 219.24 213.273 219.408C212.469 220.117 211.676 220.737 210.909 221.335C210.658 221.532 210.407 221.728 210.157 221.926C209.869 222.155 209.546 222.445 209.203 222.751C208.528 223.375 207.819 223.959 207.078 224.502C206.875 224.647 206.575 224.919 206.259 225.207C205.542 225.888 204.767 226.505 203.943 227.05C202.935 227.693 201.834 228.35 200.481 229.117C199.418 229.688 198.271 230.085 197.083 230.296C196.89 230.338 196.634 230.393 196.504 230.429C196.28 230.541 196.055 230.655 195.83 230.77C194.94 231.221 194.02 231.688 193.011 232.129C192.673 232.276 192.287 232.473 191.879 232.681C191.068 233.11 190.233 233.493 189.378 233.827C189.016 233.963 188.621 234.131 188.202 234.308C187.447 234.628 186.591 234.991 185.638 235.294C185.24 235.421 184.845 235.561 184.45 235.701C183.666 235.979 182.778 236.293 181.812 236.546C180.715 236.808 179.586 236.92 178.458 236.878C178.212 236.876 177.879 236.875 177.742 236.888C177.524 236.938 177.161 237.065 176.808 237.188C175.867 237.542 174.895 237.806 173.905 237.976C172.908 238.129 171.976 238.208 171.075 238.284C170.689 238.316 170.302 238.349 169.915 238.388C169.531 238.427 169.146 238.474 168.761 238.52C167.866 238.627 166.94 238.738 165.928 238.79C164.728 238.85 163.331 238.915 161.921 238.915ZM154.034 227.457C154.368 227.457 154.701 227.473 155.033 227.507C155.976 227.602 156.96 227.651 158.003 227.703L158.474 227.726C159.316 227.782 160.152 227.901 160.975 228.085C161.288 228.156 161.605 228.211 161.924 228.248C163.083 228.248 164.271 228.193 165.389 228.136C166.034 228.104 166.741 228.019 167.491 227.929C167.94 227.875 168.388 227.822 168.836 227.776C169.284 227.73 169.731 227.692 170.178 227.655C170.934 227.591 171.648 227.531 172.284 227.433C172.626 227.348 172.963 227.242 173.292 227.117C174.049 226.838 174.824 226.61 175.611 226.436C176.568 226.256 177.542 226.181 178.515 226.211C178.745 226.213 179.052 226.213 179.199 226.204C179.709 226.064 180.284 225.861 180.891 225.647C181.395 225.468 181.899 225.29 182.406 225.129C182.885 224.977 183.446 224.739 184.04 224.487C184.539 224.276 185.056 224.057 185.622 223.844C186.106 223.645 186.579 223.422 187.04 223.175C187.545 222.918 188.117 222.627 188.743 222.354C189.467 222.037 190.213 221.659 191.002 221.258C191.279 221.118 191.556 220.978 191.834 220.838C192.79 220.385 193.802 220.058 194.843 219.867C195.02 219.829 195.249 219.78 195.385 219.744C196.498 219.112 197.399 218.572 198.211 218.055C198.517 217.826 198.809 217.577 199.086 217.312C199.655 216.778 200.257 216.278 200.887 215.816C201.304 215.499 201.705 215.162 202.088 214.804C202.511 214.426 202.99 213.997 203.524 213.573C203.797 213.357 204.069 213.142 204.343 212.929C205.016 212.404 205.651 211.908 206.216 211.409C206.808 210.901 207.43 210.428 208.079 209.995C208.402 209.772 208.765 209.521 208.948 209.359C209.037 209.235 209.2 208.964 209.322 208.76C209.794 207.928 210.353 207.148 210.987 206.431C211.828 205.518 212.631 204.56 213.237 203.829C213.947 202.971 214.621 202.064 215.334 201.104L215.668 200.656C216.271 199.847 216.841 199.083 217.349 198.319C217.959 197.441 218.684 196.649 219.505 195.965C219.635 195.85 219.803 195.701 219.903 195.604C220.365 194.815 220.847 193.933 221.449 192.781C221.499 192.639 221.582 192.296 221.644 192.041C221.841 191.129 222.128 190.239 222.5 189.384C222.619 189.122 222.74 188.859 222.862 188.596C223.242 187.771 223.602 186.992 223.898 186.237C224.044 185.807 224.165 185.37 224.261 184.927C224.406 184.326 224.57 183.644 224.813 182.912C225.025 182.272 225.259 181.682 225.466 181.162C225.67 180.678 225.849 180.184 226.002 179.682C226.205 178.939 226.374 178.131 226.553 177.275C226.619 176.96 226.685 176.644 226.753 176.327C227.029 175.051 227.234 173.979 227.4 172.949C227.475 172.481 227.51 171.895 227.548 171.275C227.58 170.746 227.616 170.147 227.682 169.521C227.811 168.507 228.063 167.512 228.434 166.56C228.5 166.375 228.587 166.132 228.628 165.993C228.646 165.498 228.626 164.92 228.605 164.31C228.586 163.762 228.568 163.215 228.568 162.667C228.548 162.187 228.502 161.708 228.43 161.232C228.352 160.635 228.265 159.958 228.226 159.22C228.192 158.278 228.254 157.335 228.409 156.406C228.445 156.153 228.493 155.812 228.499 155.662C228.425 154.985 228.297 154.25 228.162 153.473C228.094 153.079 228.026 152.686 227.963 152.295C227.938 152.196 227.783 151.816 227.67 151.539C227.313 150.717 227.031 149.865 226.828 148.992C226.644 148.054 226.557 147.1 226.569 146.144C226.566 145.902 226.562 145.576 226.547 145.426C226.434 145.039 226.238 144.55 226.031 144.035C225.817 143.501 225.574 142.897 225.357 142.242C225.2 141.77 225.054 141.291 224.909 140.813C224.723 140.201 224.546 139.62 224.359 139.116C224.275 139.003 224.132 138.826 224.021 138.689C223.33 137.888 222.748 136.999 222.29 136.046C221.961 135.294 221.685 134.521 221.465 133.73C221.377 133.406 221.271 133.086 221.147 132.774C221.001 132.493 220.855 132.209 220.71 131.926C220.305 131.138 219.923 130.394 219.526 129.722C219.289 129.367 219.031 129.026 218.753 128.703C218.346 128.203 217.885 127.636 217.435 126.959C217.147 126.524 216.76 126.042 216.35 125.531C216.023 125.122 215.684 124.699 215.336 124.231C214.893 123.621 214.485 122.986 214.112 122.33C213.919 121.979 213.704 121.641 213.469 121.317L213.434 121.274C212.675 120.357 211.958 119.491 211.221 118.69C210.904 118.377 210.569 118.083 210.218 117.809C209.731 117.41 209.18 116.959 208.618 116.408C207.894 115.669 207.264 114.842 206.745 113.947C206.66 113.809 206.552 113.635 206.471 113.514C206.315 113.421 206.07 113.29 205.878 113.189C205.058 112.777 204.279 112.289 203.551 111.73C203.03 111.317 202.559 110.899 202.142 110.53C201.692 110.13 201.266 109.752 200.905 109.495C200.268 109.041 199.559 108.595 198.809 108.123C198.539 107.954 198.27 107.784 198.001 107.613C197.613 107.391 197.212 107.192 196.8 107.016C196.229 106.756 195.582 106.46 194.899 106.074C194.223 105.679 193.572 105.242 192.949 104.767C192.652 104.536 192.342 104.323 192.019 104.129C191.495 103.867 190.873 103.613 190.214 103.345C189.753 103.157 189.292 102.969 188.836 102.77C188.474 102.612 188.114 102.45 187.754 102.287C187.017 101.955 186.32 101.641 185.661 101.393C184.898 101.093 184.156 100.74 183.442 100.337C183.203 100.207 182.898 100.043 182.689 99.9445C182.556 99.9432 182.389 99.9469 182.253 99.9494C181.15 100.005 180.045 99.9037 178.972 99.6474C178.096 99.4028 177.246 99.0769 176.432 98.674C176.178 98.5561 175.835 98.3957 175.691 98.349C175.324 98.277 174.809 98.2345 174.265 98.1899C173.669 98.1407 172.993 98.0853 172.271 97.974C171.741 97.8924 171.213 97.794 170.684 97.6944C170.02 97.5698 169.394 97.4519 168.851 97.3965C168.266 97.3368 167.593 97.3194 166.879 97.3003C166.382 97.2875 165.884 97.2736 165.386 97.2486C164.554 97.1939 163.727 97.078 162.912 96.9019C162.585 96.8291 162.254 96.7745 161.92 96.7382C161.394 96.7382 160.769 96.7932 160.106 96.8511C159.576 96.8978 159.027 96.9461 158.442 96.9757C157.994 96.9982 157.427 97.0874 156.826 97.1815C156.276 97.2678 155.652 97.3661 154.993 97.4328C154.587 97.4994 154.184 97.5907 153.788 97.7061C153.07 97.9067 152.341 98.0683 151.605 98.1903L151.308 98.2357C150.217 98.4028 149.186 98.5607 148.203 98.7644C147.324 98.9319 146.433 99.0212 145.538 99.0315C145.237 99.0415 144.825 99.0557 144.685 99.0819C144.277 99.2151 143.876 99.3705 143.485 99.5473C142.898 99.7957 142.232 100.077 141.472 100.318C141.113 100.461 140.763 100.627 140.424 100.813C139.745 101.175 139.045 101.498 138.328 101.778C137.709 102.011 137.113 102.199 136.587 102.366C136.014 102.547 135.473 102.719 135.065 102.897C134.299 103.218 133.512 103.483 132.709 103.691C132.385 103.772 132.066 103.871 131.753 103.988C131.065 104.331 130.35 104.744 129.592 105.18C129.303 105.347 129.013 105.513 128.723 105.678C128.615 105.748 128.296 106.034 128.063 106.243C127.424 106.841 126.735 107.384 126.005 107.866C125.421 108.238 124.854 108.552 124.353 108.83C123.898 109.07 123.455 109.334 123.026 109.619C122.36 110.08 121.664 110.495 120.942 110.862C120.626 111.02 120.319 111.196 120.023 111.389C119.604 111.721 119.143 112.158 118.654 112.619C118.257 112.994 117.86 113.369 117.453 113.728C116.879 114.235 116.314 114.656 115.816 115.028C115.463 115.291 115.127 115.542 114.882 115.755C114.816 115.874 114.728 116.046 114.659 116.182C114.192 117.172 113.588 118.091 112.864 118.911C112.112 119.73 111.316 120.602 110.583 121.488C110.243 121.898 109.892 122.296 109.54 122.694C109.095 123.198 108.674 123.674 108.349 124.112C107.987 124.599 107.622 125.175 107.236 125.785C106.981 126.189 106.724 126.593 106.459 126.992C105.903 127.795 105.261 128.534 104.545 129.196C104.419 129.319 104.261 129.473 104.15 129.588C104.11 129.73 104.061 129.921 104.022 130.075C103.799 131.065 103.458 132.026 103.006 132.935C102.701 133.521 102.384 134.058 102.103 134.532C101.797 135.049 101.508 135.536 101.324 135.941C101.169 136.28 101.011 136.619 100.853 136.957C100.503 137.705 100.173 138.411 99.909 139.084C99.6629 139.711 99.3965 140.289 99.1614 140.799C98.9305 141.275 98.7235 141.763 98.5415 142.259C98.5058 142.389 98.4583 142.823 98.4235 143.139C98.3472 144 98.2009 144.854 97.9861 145.691C97.7298 146.571 97.3896 147.425 96.9702 148.241C96.8523 148.484 96.6929 148.813 96.6429 148.955C96.5565 149.373 96.4994 149.921 96.439 150.5C96.381 151.056 96.3152 151.686 96.2094 152.346C96.1086 152.974 95.9827 153.571 95.8717 154.097C95.7431 154.707 95.6217 155.283 95.5721 155.749C95.5582 156.14 95.5681 156.531 95.6017 156.921C95.6589 157.686 95.6719 158.453 95.6406 159.22C95.5919 159.973 95.5008 160.724 95.3679 161.467C95.2922 161.863 95.241 162.264 95.2146 162.666C95.2229 162.788 95.315 163.201 95.3823 163.504C95.5924 164.358 95.7283 165.228 95.7886 166.105C95.8194 166.852 95.8102 167.601 95.761 168.348C95.7297 168.753 95.7228 169.16 95.7402 169.566C95.8552 170.649 96.006 171.767 96.2019 172.987C96.2935 173.419 96.4112 173.846 96.5542 174.264C96.7423 174.865 96.9558 175.547 97.1225 176.319C97.2733 177.017 97.484 177.757 97.707 178.539C97.8105 178.903 97.9143 179.268 98.0142 179.634C98.2773 180.685 98.3945 181.767 98.3623 182.85C98.3626 182.986 98.363 183.155 98.3659 183.287C98.4546 183.448 98.604 183.697 98.7213 183.893C99.1912 184.639 99.5959 185.424 99.9309 186.24C100.222 187.015 100.457 187.81 100.634 188.619C100.704 188.946 100.792 189.27 100.896 189.587C101.12 190.078 101.435 190.636 101.768 191.227C102.033 191.696 102.296 192.164 102.543 192.638C102.878 193.28 103.147 193.898 103.384 194.443C103.572 194.902 103.784 195.35 104.02 195.786C104.273 196.173 104.548 196.545 104.844 196.9C105.23 197.388 105.668 197.941 106.094 198.581C106.344 198.958 106.711 199.402 107.101 199.872C107.451 200.296 107.848 200.776 108.238 201.301C108.551 201.692 108.884 202.067 109.236 202.423C109.637 202.847 110.092 203.327 110.545 203.875C111.079 204.54 111.56 205.247 111.984 205.988C112.138 206.259 112.306 206.523 112.487 206.778C112.793 207.11 113.229 207.496 113.69 207.905C114.098 208.266 114.561 208.676 115.024 209.129C115.558 209.665 116.063 210.231 116.535 210.823C116.784 211.143 117.052 211.447 117.337 211.734C117.667 212.025 118.134 212.356 118.628 212.706C119.077 213.024 119.584 213.383 120.097 213.788C120.223 213.868 120.564 214.028 120.815 214.146C121.648 214.514 122.445 214.959 123.195 215.476C123.958 216.041 124.66 216.684 125.292 217.393C125.461 217.573 125.688 217.816 125.799 217.914C126.35 218.262 126.978 218.605 127.642 218.969C128.016 219.174 128.389 219.378 128.759 219.588C129.165 219.794 129.582 219.976 130.009 220.135C130.588 220.365 131.244 220.627 131.938 220.974C132.338 221.174 132.872 221.375 133.437 221.587C133.952 221.78 134.534 221.999 135.137 222.262C135.791 222.548 136.378 222.853 136.896 223.122C137.334 223.361 137.785 223.578 138.246 223.77C138.957 224.038 139.587 224.335 140.143 224.597C140.561 224.806 140.99 224.991 141.428 225.152C142.153 225.382 142.801 225.648 143.372 225.882C143.788 226.052 144.185 226.215 144.5 226.316C144.638 226.312 144.839 226.3 144.997 226.291C146.076 226.192 147.164 226.242 148.23 226.439C149.214 226.664 150.169 227.005 151.073 227.455C151.216 227.521 151.395 227.604 151.532 227.663C151.682 227.649 151.882 227.625 152.043 227.605C152.703 227.514 153.368 227.465 154.034 227.457Z" fill="#EBEBF1"/>
<path d="M133.278 92.7859C132.436 80.6627 132.596 68.49 133.278 56.3631C133.293 56.1791 133.378 56.0076 133.514 55.8827C133.65 55.7578 133.828 55.6885 134.012 55.6885C134.197 55.6885 134.375 55.7578 134.511 55.8827C134.647 56.0076 134.731 56.1791 134.747 56.3631C135.32 65.4587 135.392 74.5718 135.204 83.6801C135.118 86.7154 134.999 89.7506 134.747 92.7859C134.729 92.9682 134.644 93.1373 134.508 93.2603C134.372 93.3833 134.195 93.4514 134.012 93.4514C133.829 93.4514 133.652 93.3833 133.517 93.2603C133.381 93.1373 133.296 92.9682 133.278 92.7859L133.278 92.7859Z" fill="#181C56"/>
<path d="M183.147 91.3556C182.456 82.6214 182.528 73.8611 182.737 65.1111C182.822 62.195 182.935 59.279 183.147 56.363C183.16 56.1774 183.244 56.0039 183.38 55.8772C183.516 55.7506 183.695 55.6802 183.881 55.6802C184.067 55.6802 184.246 55.7506 184.383 55.8772C184.519 56.0039 184.602 56.1774 184.616 56.363C185.189 65.1008 185.261 73.8565 185.073 82.6075C184.987 85.5236 184.868 88.4396 184.616 91.3556C184.597 91.5374 184.512 91.7058 184.376 91.8282C184.24 91.9506 184.064 92.0184 183.881 92.0184C183.699 92.0184 183.522 91.9506 183.387 91.8282C183.251 91.7058 183.166 91.5374 183.147 91.3556Z" fill="#181C56"/>
<path d="M160.973 239.18C160.235 239.163 159.5 239.089 158.773 238.958C158.265 238.871 157.752 238.809 157.237 238.773C156.439 238.735 155.66 238.632 154.906 238.532C154.445 238.472 153.984 238.411 153.523 238.366C153.029 238.317 152.525 238.305 151.992 238.292C151.254 238.288 150.517 238.239 149.785 238.145C149.054 238.016 148.339 237.81 147.652 237.53C147.175 237.34 146.684 237.185 146.183 237.07C145.671 236.982 145.154 236.928 144.634 236.908C143.902 236.884 143.173 236.792 142.458 236.633C141.367 236.361 140.289 236.034 139.247 235.717L138.863 235.601C137.892 235.306 136.938 234.961 136.016 234.628L135.33 234.381C134.205 233.978 133.033 233.524 131.846 233.032C131.165 232.735 130.502 232.398 129.86 232.023C129.402 231.767 128.969 231.525 128.527 231.316C128.054 231.116 127.564 230.964 127.062 230.859C126.325 230.709 125.611 230.465 124.936 230.134C124.29 229.771 123.667 229.368 123.072 228.926C122.635 228.615 122.223 228.322 121.801 228.069C121.172 227.661 120.597 227.177 120.088 226.627C119.74 226.254 119.358 225.915 118.946 225.613C118.512 225.356 118.05 225.148 117.569 224.993C116.843 224.761 116.154 224.425 115.523 223.996C114.943 223.545 114.397 223.051 113.89 222.519C113.506 222.136 113.144 221.773 112.762 221.459C111.959 220.799 111.191 220.099 110.448 219.422L109.97 218.988C109.576 218.65 109.16 218.339 108.724 218.057C108.104 217.661 107.522 217.206 106.987 216.7C106.478 216.157 106.033 215.557 105.66 214.913C105.4 214.468 105.103 214.046 104.771 213.652C104.439 213.286 104.066 212.941 103.671 212.576C103.121 212.09 102.605 211.566 102.127 211.008C101.676 210.43 101.279 209.811 100.941 209.161C100.699 208.703 100.428 208.261 100.13 207.838C99.6004 207.125 99.1198 206.388 98.6548 205.676C98.4548 205.37 98.2546 205.063 98.0498 204.758C97.3508 203.714 96.6996 202.688 96.0591 201.622C95.7729 201.222 95.4321 200.864 95.0467 200.559C94.4254 200.066 93.8975 199.466 93.4881 198.786C93.1579 198.121 92.9018 197.421 92.7244 196.699C92.5982 196.196 92.4316 195.705 92.226 195.229C92.0152 194.784 91.7586 194.346 91.4869 193.882C91.0997 193.253 90.7564 192.599 90.4596 191.923C90.1969 191.232 90.0075 190.515 89.8946 189.785C89.8126 189.274 89.6917 188.769 89.5329 188.277C89.265 187.528 89.0636 186.773 88.8686 186.042C88.7491 185.595 88.6296 185.147 88.4948 184.701C88.3332 184.213 88.1407 183.735 87.9186 183.27C87.5971 182.608 87.3365 181.919 87.1398 181.21C87.0012 180.711 86.8302 180.222 86.6278 179.746C86.3344 179.067 86.1047 178.362 85.9415 177.64C85.828 176.859 85.8542 176.065 86.0189 175.293C86.1227 174.809 86.1584 174.313 86.1251 173.818C86.0409 173.313 85.9312 172.813 85.7966 172.319C85.5988 171.612 85.4558 170.891 85.3687 170.162C85.3083 169.419 85.2868 168.673 85.3043 167.928C85.3078 167.411 85.3111 166.922 85.2872 166.434C85.2527 165.922 85.1926 165.412 85.107 164.906C84.9798 164.182 84.9078 163.45 84.8916 162.715C84.9078 161.981 84.9806 161.249 85.1092 160.525C85.1958 160.019 85.2566 159.509 85.2913 158.997C85.3024 158.477 85.2782 157.956 85.219 157.439C85.1314 156.712 85.1131 155.979 85.1642 155.249C85.2513 154.518 85.3927 153.794 85.5873 153.084C85.7175 152.561 85.8404 152.067 85.9119 151.581C86.0327 150.842 86.1931 150.11 86.3923 149.388C86.5203 148.89 86.6413 148.421 86.7348 147.948C86.8226 147.437 86.8773 146.92 86.8986 146.402C86.924 145.671 87.0165 144.944 87.175 144.229C87.364 143.473 87.6198 142.755 87.8673 142.061C88.0369 141.585 88.1971 141.136 88.335 140.68C88.4749 140.181 88.5871 139.673 88.6713 139.161C88.7851 138.438 88.958 137.725 89.1881 137.029C89.4508 136.296 89.7769 135.603 90.0927 134.934C90.3085 134.476 90.5125 134.044 90.6948 133.604C91.0031 132.861 91.3647 132.155 91.7139 131.473C91.9225 131.066 92.1308 130.659 92.3262 130.247C92.8169 129.211 93.3735 128.036 93.9793 126.905C94.205 126.484 94.4108 126.053 94.6287 125.597C94.9466 124.931 95.2756 124.242 95.6754 123.576C96.0668 122.955 96.5023 122.362 96.9787 121.803C97.3185 121.385 97.6396 120.99 97.9142 120.58C98.1731 120.193 98.4183 119.798 98.6635 119.404C99.0633 118.761 99.4769 118.096 99.951 117.457C100.418 116.829 100.929 116.258 101.424 115.705C101.756 115.334 102.069 114.984 102.369 114.619C102.681 114.239 102.97 113.834 103.276 113.406C103.695 112.796 104.149 112.21 104.636 111.653C105.141 111.123 105.689 110.636 106.274 110.197C106.685 109.884 107.078 109.548 107.451 109.191C108.274 108.368 109.155 107.532 110.145 106.634C110.52 106.279 110.875 105.904 111.209 105.51C111.678 104.948 112.192 104.426 112.746 103.948C113.139 103.61 113.513 103.251 113.865 102.87C114.362 102.328 114.902 101.828 115.482 101.375C116.081 100.951 116.712 100.573 117.369 100.245C117.831 100.01 118.281 99.7522 118.717 99.4724C119.138 99.1711 119.537 98.8392 119.91 98.4793C120.44 97.9615 121.021 97.4992 121.645 97.0993C122.313 96.7343 123.03 96.4649 123.773 96.2988C124.268 96.1874 124.751 96.0222 125.211 95.8061C125.913 95.4299 126.631 95.118 127.326 94.8163C127.749 94.6325 128.173 94.4488 128.592 94.25C129.643 93.7525 130.78 93.2235 131.983 92.7248C132.391 92.5556 132.793 92.3763 133.196 92.1969C133.906 91.8802 134.641 91.5529 135.412 91.2769C135.888 91.0856 136.345 90.8529 136.779 90.5814C137.412 90.1813 138.09 89.8576 138.8 89.6171C139.542 89.3923 140.295 89.2407 141.022 89.0942C141.52 88.994 141.99 88.8992 142.454 88.7834C143.179 88.6269 143.919 88.5535 144.66 88.5646C145.175 88.5699 145.691 88.5313 146.2 88.4494C146.685 88.3237 147.153 88.1421 147.595 87.9082C148.276 87.5476 149.007 87.2908 149.764 87.1463C150.526 87.0342 151.287 86.9982 152.023 86.9636C152.536 86.9393 153.022 86.9164 153.503 86.8698C154.247 86.8226 154.993 86.8681 155.725 87.0052C156.232 87.0967 156.746 87.1412 157.26 87.1383C157.758 87.0851 158.247 86.9747 158.72 86.8093C159.446 86.5544 160.205 86.4084 160.974 86.376C161.744 86.409 162.505 86.5579 163.231 86.8178C163.701 86.9859 164.19 87.0981 164.686 87.152C165.156 87.1747 165.623 87.181 166.089 87.1872C166.84 87.1977 167.617 87.2083 168.403 87.2849C168.899 87.3331 169.408 87.3372 169.948 87.3416C170.679 87.3312 171.41 87.3718 172.136 87.4633C173.417 87.6516 174.66 87.8885 175.812 88.1166C176.639 88.2799 177.442 88.4976 178.218 88.7083C178.623 88.8176 179.026 88.9272 179.432 89.0285C179.94 89.1413 180.454 89.2211 180.972 89.2674C181.704 89.3285 182.429 89.4569 183.138 89.651C183.845 89.88 184.537 90.1528 185.21 90.4678C185.695 90.6835 186.154 90.8872 186.616 91.0524C187.306 91.3147 187.98 91.6216 188.631 91.9709C189.104 92.2124 189.551 92.4405 190.005 92.6289C190.489 92.815 190.985 92.9691 191.49 93.0903C192.205 93.2576 192.903 93.4909 193.575 93.7874C194.231 94.1197 194.856 94.5109 195.442 94.9561C195.856 95.2666 196.288 95.5505 196.738 95.8061C197.201 96.0318 197.683 96.2167 198.178 96.3587C198.896 96.5604 199.587 96.8456 200.238 97.2082C200.864 97.6012 201.462 98.036 202.028 98.5096C202.448 98.8454 202.845 99.1627 203.255 99.4373C203.694 99.7171 204.147 99.9721 204.614 100.201C205.276 100.52 205.91 100.894 206.511 101.317L206.839 101.561C207.718 102.213 208.628 102.887 209.492 103.597C210.052 104.078 210.577 104.596 211.065 105.15C211.432 105.549 211.779 105.925 212.146 106.257C212.502 106.581 212.879 106.889 213.277 107.214C213.87 107.683 214.439 108.182 214.982 108.708C215.494 109.24 215.97 109.806 216.408 110.4C216.736 110.826 217.045 111.229 217.378 111.595C217.71 111.961 218.087 112.308 218.487 112.674C219.041 113.159 219.56 113.683 220.039 114.242C220.499 114.852 220.869 115.524 221.138 116.238C221.317 116.712 221.548 117.163 221.827 117.585C222.149 117.983 222.507 118.35 222.897 118.681C223.47 119.164 223.981 119.716 224.419 120.324C224.825 120.953 225.197 121.605 225.534 122.274C225.776 122.735 226.005 123.171 226.255 123.588C226.455 123.92 226.659 124.25 226.864 124.58C227.306 125.292 227.763 126.029 228.174 126.797C228.699 127.778 229.179 128.792 229.642 129.772L229.822 130.153C230.118 130.832 230.338 131.541 230.477 132.268C230.576 132.774 230.717 133.27 230.897 133.753C231.079 134.192 231.281 134.621 231.495 135.075C231.809 135.739 232.132 136.427 232.395 137.161C232.579 137.642 232.79 138.112 233.026 138.57C233.368 139.222 233.655 139.9 233.885 140.598C234.084 141.307 234.237 142.027 234.342 142.756C234.43 143.284 234.513 143.783 234.633 144.265C234.776 144.758 234.959 145.238 235.182 145.701C235.51 146.372 235.76 147.078 235.929 147.806C236.056 148.53 236.132 149.262 236.156 149.996C236.187 150.539 236.216 151.051 236.288 151.544C236.415 152.406 236.488 153.275 236.559 154.116C236.591 154.497 236.623 154.879 236.66 155.261C236.724 155.774 236.821 156.282 236.95 156.782C237.14 157.497 237.263 158.228 237.318 158.965C237.321 159.731 237.21 160.492 236.987 161.224C236.84 161.709 236.751 162.21 236.721 162.716C236.746 163.227 236.824 163.735 236.954 164.23C237.148 164.958 237.242 165.709 237.233 166.462C237.17 167.215 237.009 167.957 236.753 168.669C236.584 169.147 236.462 169.641 236.39 170.144C236.341 170.638 236.33 171.14 236.317 171.671C236.314 172.406 236.266 173.141 236.172 173.87C236.1 174.363 236.073 174.875 236.044 175.417C236.023 176.15 235.948 176.881 235.822 177.604C235.65 178.338 235.384 179.047 235.032 179.713C234.796 180.164 234.605 180.636 234.46 181.123C234.355 181.627 234.295 182.139 234.282 182.654C234.266 183.399 234.161 184.139 233.969 184.859C233.825 185.332 233.715 185.826 233.598 186.349C233.451 187.076 233.259 187.793 233.023 188.496C232.737 189.203 232.355 189.868 231.887 190.47C231.577 190.871 231.311 191.303 231.093 191.76C230.784 192.504 230.424 193.206 230.076 193.885C229.868 194.291 229.66 194.697 229.465 195.11C228.849 196.409 228.32 197.466 227.801 198.436C227.407 199.172 226.969 199.867 226.546 200.539C226.321 200.896 226.096 201.254 225.877 201.618C225.659 202.059 225.504 202.529 225.417 203.014C225.277 203.794 224.996 204.543 224.589 205.224C224.146 205.836 223.624 206.388 223.037 206.864C222.642 207.187 222.28 207.549 221.956 207.944C221.658 208.369 221.387 208.812 221.146 209.272C220.809 209.925 220.412 210.546 219.96 211.126C219.481 211.683 218.96 212.201 218.4 212.677C218.008 213.014 217.634 213.372 217.279 213.749C217.009 214.046 216.744 214.348 216.479 214.65C215.936 215.269 215.375 215.908 214.769 216.513C214.495 216.788 214.224 217.066 213.952 217.345C213.369 217.946 212.765 218.567 212.121 219.15C211.554 219.632 210.931 220.045 210.265 220.38C209.809 220.613 209.373 220.886 208.965 221.195C208.64 221.463 208.322 221.735 208.004 222.007C207.398 222.525 206.771 223.062 206.098 223.562C205.691 223.879 205.302 224.22 204.934 224.582C204.414 225.099 203.852 225.572 203.253 225.994C202.829 226.291 202.42 226.611 202.03 226.952C201.479 227.439 200.889 227.881 200.268 228.275C199.387 228.804 198.221 229.494 197.012 230.141C196.355 230.476 195.676 230.766 194.979 231.008C194.473 231.197 193.995 231.375 193.547 231.587C193.13 231.785 192.717 231.998 192.305 232.21C191.624 232.561 190.92 232.923 190.181 233.23C189.497 233.494 188.791 233.698 188.071 233.841C187.562 233.946 187.059 234.08 186.566 234.244C186.126 234.401 185.694 234.576 185.236 234.762C184.542 235.043 183.825 235.333 183.071 235.561C182.6 235.704 182.128 235.895 181.629 236.097C180.95 236.39 180.251 236.634 179.538 236.828C178.807 236.984 178.059 237.05 177.312 237.024C176.798 237.008 176.283 237.04 175.774 237.119C175.272 237.234 174.779 237.384 174.298 237.569C173.609 237.838 172.894 238.038 172.165 238.166C171.437 238.258 170.703 238.3 169.969 238.293C169.429 238.299 168.919 238.305 168.423 238.353C167.913 238.42 167.409 238.528 166.916 238.674C166.202 238.89 165.468 239.029 164.725 239.087C163.458 239.148 162.196 239.18 160.973 239.18ZM154.043 89.1635C153.935 89.1635 153.83 89.168 153.728 89.1779C153.189 89.2303 152.652 89.2556 152.133 89.2803C151.422 89.3138 150.75 89.3455 150.102 89.4409C149.573 89.5578 149.063 89.7477 148.587 90.0051C147.974 90.3251 147.324 90.5669 146.651 90.7249C146.009 90.835 145.359 90.888 144.708 90.8834C144.141 90.8724 143.573 90.9228 143.016 91.0336C142.501 91.1624 141.982 91.2667 141.481 91.3678C140.775 91.5098 140.109 91.644 139.472 91.8367C138.937 92.0292 138.424 92.2808 137.944 92.5869C137.389 92.9317 136.803 93.2242 136.194 93.4607C135.505 93.7071 134.842 94.0026 134.139 94.3157C133.719 94.503 133.298 94.6905 132.871 94.8674C131.715 95.3467 130.609 95.8615 129.586 96.3463C129.144 96.5557 128.697 96.7501 128.25 96.9437C127.568 97.2397 126.924 97.5197 126.306 97.8505C125.691 98.1544 125.043 98.3853 124.375 98.5386C123.842 98.6535 123.325 98.838 122.84 99.0874C122.351 99.4099 121.894 99.7791 121.476 100.19C121.018 100.63 120.527 101.035 120.008 101.4C119.506 101.724 118.989 102.022 118.457 102.293C117.904 102.568 117.372 102.884 116.865 103.237C116.389 103.616 115.944 104.032 115.534 104.481C115.12 104.926 114.681 105.347 114.219 105.741C113.762 106.14 113.338 106.576 112.95 107.042C112.56 107.502 112.144 107.939 111.704 108.352C110.742 109.224 109.887 110.036 109.091 110.832C108.656 111.252 108.196 111.647 107.715 112.014C107.23 112.376 106.775 112.777 106.355 113.212C105.928 113.702 105.531 114.217 105.164 114.754C104.849 115.195 104.523 115.651 104.161 116.092C103.83 116.494 103.486 116.879 103.152 117.252C102.671 117.79 102.217 118.297 101.813 118.841C101.396 119.402 101.026 119.998 100.633 120.628C100.375 121.045 100.115 121.462 99.8418 121.87C99.5072 122.37 99.1368 122.826 98.7785 123.266C98.3724 123.741 97.9999 124.244 97.6639 124.77C97.321 125.341 97.0299 125.951 96.722 126.596C96.5022 127.056 96.2751 127.532 96.0241 128.001C95.4453 129.081 94.9019 130.228 94.4226 131.24C94.2168 131.674 93.9978 132.102 93.7783 132.53C93.4346 133.201 93.11 133.835 92.8373 134.493C92.634 134.983 92.4086 135.461 92.1907 135.924C91.8854 136.571 91.5969 137.183 91.3721 137.811C91.1858 138.39 91.0454 138.982 90.9523 139.582C90.8534 140.179 90.7208 140.77 90.555 141.353C90.4009 141.862 90.2238 142.359 90.0523 142.84C89.8129 143.511 89.5869 144.145 89.4257 144.791C89.3033 145.37 89.2323 145.959 89.2134 146.55C89.1868 147.17 89.119 147.787 89.0104 148.398C88.9038 148.936 88.7692 149.459 88.6386 149.966C88.4603 150.609 88.3162 151.26 88.2067 151.918C88.1188 152.516 87.9763 153.09 87.8384 153.644C87.6727 154.244 87.5505 154.856 87.4727 155.474C87.4384 156.06 87.4573 156.648 87.5292 157.231C87.5994 157.854 87.6257 158.482 87.6081 159.109C87.5702 159.701 87.5015 160.291 87.4021 160.875C87.2928 161.483 87.2289 162.098 87.2111 162.715C87.2287 163.334 87.292 163.95 87.4004 164.56C87.4983 165.143 87.5662 165.731 87.604 166.322C87.6307 166.874 87.6271 167.418 87.6236 167.944C87.6071 168.609 87.6249 169.274 87.6769 169.937C87.7542 170.55 87.8771 171.155 88.0446 171.749C88.1994 172.32 88.3246 172.898 88.4196 173.481C88.4938 174.207 88.4569 174.939 88.31 175.654C88.1971 176.157 88.1657 176.676 88.2169 177.19C88.3548 177.772 88.5443 178.341 88.7834 178.89C89.025 179.462 89.2277 180.049 89.3903 180.648C89.5554 181.222 89.7706 181.781 90.0332 182.317C90.2974 182.872 90.5249 183.444 90.7144 184.029C90.8571 184.499 90.9836 184.972 91.1096 185.444C91.3007 186.161 91.4813 186.837 91.7167 187.495C91.9181 188.102 92.0709 188.724 92.1736 189.354C92.2602 189.927 92.4037 190.49 92.6021 191.034C92.8594 191.612 93.1555 192.172 93.4882 192.71C93.7731 193.197 94.068 193.7 94.3221 194.236C94.5848 194.828 94.7969 195.44 94.9563 196.068C95.0916 196.627 95.2848 197.171 95.5325 197.691C95.8203 198.123 96.1759 198.505 96.5856 198.824C97.1521 199.28 97.645 199.821 98.0473 200.428C98.6679 201.461 99.2992 202.455 99.9771 203.467C100.187 203.78 100.392 204.095 100.597 204.408C101.063 205.123 101.504 205.798 101.992 206.455C102.351 206.958 102.677 207.485 102.966 208.032C103.239 208.56 103.558 209.063 103.918 209.536C104.33 210.011 104.773 210.458 105.245 210.873C105.659 211.256 106.088 211.652 106.489 212.094C106.914 212.588 107.294 213.118 107.624 213.68C107.908 214.175 108.244 214.638 108.627 215.06C109.061 215.462 109.531 215.824 110.031 216.141C110.555 216.482 111.055 216.859 111.527 217.27L112.009 217.708C112.764 218.396 113.476 219.045 114.234 219.668C114.704 220.053 115.123 220.473 115.53 220.879C115.958 221.33 116.418 221.75 116.906 222.135C117.362 222.427 117.855 222.657 118.372 222.818C119.026 223.031 119.652 223.323 120.236 223.686C120.775 224.069 121.275 224.505 121.728 224.987C122.106 225.4 122.531 225.767 122.995 226.081C123.495 226.381 123.963 226.714 124.416 227.036C124.932 227.421 125.472 227.773 126.031 228.09C126.537 228.325 127.069 228.498 127.616 228.607C128.27 228.746 128.908 228.951 129.52 229.22C130.033 229.463 130.521 229.736 130.993 230C131.556 230.33 132.138 230.627 132.735 230.89C133.886 231.368 135.023 231.807 136.112 232.197L136.805 232.447C137.699 232.77 138.623 233.105 139.536 233.381L139.922 233.498C140.936 233.806 141.985 234.125 143.02 234.383C143.599 234.505 144.188 234.575 144.779 234.593C145.401 234.619 146.021 234.686 146.633 234.795C147.254 234.932 147.862 235.12 148.453 235.354C148.992 235.575 149.551 235.742 150.123 235.851C150.762 235.93 151.405 235.971 152.05 235.974C152.6 235.987 153.17 236.001 153.748 236.058C154.235 236.105 154.722 236.169 155.21 236.233C155.949 236.331 156.647 236.423 157.35 236.457C157.945 236.496 158.538 236.566 159.127 236.666C159.737 236.777 160.354 236.842 160.974 236.861C162.159 236.861 163.384 236.83 164.613 236.771C165.192 236.717 165.764 236.604 166.32 236.433C166.935 236.252 167.563 236.123 168.199 236.045C168.794 235.987 169.378 235.98 169.943 235.974C170.573 235.982 171.203 235.947 171.828 235.872C172.407 235.763 172.975 235.599 173.523 235.383C174.109 235.159 174.711 234.979 175.324 234.844C175.978 234.733 176.641 234.687 177.304 234.705C177.864 234.727 178.425 234.684 178.976 234.578C179.584 234.409 180.18 234.198 180.76 233.947C181.285 233.735 181.828 233.515 182.399 233.342C183.053 233.144 183.691 232.886 184.366 232.612C184.826 232.426 185.301 232.234 185.785 232.06C186.366 231.864 186.958 231.704 187.557 231.58C188.149 231.464 188.729 231.299 189.293 231.087C189.944 230.817 190.575 230.492 191.244 230.148C191.679 229.924 192.114 229.7 192.555 229.491C193.092 229.237 193.64 229.033 194.17 228.835C194.768 228.628 195.353 228.381 195.918 228.097C197.082 227.474 198.216 226.802 199.074 226.287C199.591 225.955 200.08 225.583 200.539 225.176C200.994 224.78 201.469 224.41 201.964 224.067C202.455 223.715 202.915 223.323 203.342 222.896C203.776 222.47 204.235 222.071 204.716 221.7C205.324 221.248 205.894 220.76 206.497 220.245C206.827 219.963 207.156 219.68 207.493 219.404C208.01 219.001 208.564 218.648 209.146 218.349C209.652 218.097 210.127 217.79 210.564 217.432C211.154 216.898 211.706 216.33 212.291 215.729C212.569 215.442 212.848 215.155 213.13 214.873C213.682 214.321 214.194 213.738 214.736 213.12C215.009 212.809 215.283 212.497 215.561 212.191C215.97 211.754 216.402 211.339 216.856 210.947C217.325 210.55 217.765 210.117 218.169 209.654C218.529 209.181 218.847 208.677 219.119 208.148C219.408 207.598 219.735 207.068 220.095 206.561C220.512 206.034 220.984 205.552 221.503 205.125C221.937 204.777 222.327 204.377 222.663 203.933C222.907 203.479 223.075 202.987 223.161 202.478C223.296 201.76 223.542 201.066 223.89 200.423C224.117 200.046 224.351 199.674 224.584 199.303C225.004 198.636 225.401 198.005 225.757 197.341C226.259 196.405 226.771 195.381 227.37 194.117C227.576 193.682 227.794 193.255 228.013 192.828C228.356 192.16 228.679 191.529 228.951 190.872C229.232 190.252 229.583 189.666 229.998 189.126C230.338 188.694 230.622 188.22 230.84 187.715C231.043 187.102 231.209 186.477 231.336 185.844C231.457 185.302 231.582 184.742 231.75 184.186C231.885 183.64 231.958 183.079 231.968 182.516C231.987 181.859 232.068 181.204 232.211 180.562C232.39 179.922 232.635 179.303 232.94 178.713C233.204 178.219 233.408 177.696 233.547 177.154C233.651 176.539 233.712 175.918 233.729 175.295C233.76 174.723 233.791 174.132 233.879 173.533C233.958 172.897 233.998 172.257 234 171.616C234.013 171.066 234.026 170.498 234.082 169.919C234.167 169.257 234.321 168.606 234.541 167.976C234.732 167.451 234.859 166.905 234.918 166.35C234.91 165.802 234.834 165.258 234.69 164.73C234.52 164.071 234.424 163.395 234.403 162.715C234.427 162.016 234.541 161.322 234.741 160.652C234.9 160.141 234.988 159.612 235.002 159.077C234.951 158.48 234.848 157.889 234.693 157.31C234.539 156.71 234.426 156.1 234.353 155.485C234.315 155.094 234.282 154.702 234.249 154.311C234.178 153.468 234.111 152.672 233.995 151.881C233.907 151.285 233.874 150.696 233.842 150.126C233.822 149.499 233.759 148.874 233.654 148.256C233.516 147.699 233.318 147.158 233.064 146.642C232.784 146.058 232.557 145.45 232.384 144.826C232.241 144.255 232.147 143.686 232.056 143.136C231.966 142.506 231.836 141.883 231.666 141.271C231.471 140.693 231.23 140.132 230.946 139.593C230.67 139.057 230.425 138.506 230.213 137.942C229.988 137.313 229.701 136.706 229.398 136.063C229.182 135.605 228.959 135.131 228.756 134.641C228.523 134.038 228.343 133.417 228.216 132.783C228.111 132.222 227.947 131.673 227.727 131.146L227.546 130.763C227.095 129.809 226.628 128.822 226.13 127.892C225.754 127.189 225.336 126.515 224.894 125.802C224.683 125.463 224.473 125.123 224.268 124.782C223.983 124.307 223.728 123.821 223.482 123.352C223.183 122.755 222.852 122.175 222.492 121.614C222.155 121.164 221.767 120.755 221.335 120.395C220.833 119.966 220.375 119.487 219.966 118.968C219.574 118.402 219.252 117.792 219.006 117.149C218.819 116.639 218.564 116.157 218.248 115.715C217.837 115.241 217.393 114.796 216.92 114.383C216.499 113.998 216.064 113.599 215.66 113.153C215.265 112.717 214.912 112.258 214.57 111.814C214.193 111.3 213.783 110.81 213.343 110.348C212.879 109.884 212.359 109.459 211.809 109.009C211.406 108.68 210.989 108.339 210.588 107.975C210.144 107.573 209.745 107.14 209.36 106.721C208.944 106.247 208.497 105.802 208.02 105.389C207.201 104.716 206.315 104.059 205.458 103.424L205.128 103.179C204.628 102.832 204.101 102.526 203.552 102.262C203.006 101.994 202.477 101.694 201.966 101.364C201.474 101.035 201.02 100.672 200.581 100.321C200.094 99.9127 199.581 99.537 199.045 99.1963C198.544 98.929 198.015 98.7177 197.469 98.5663C196.839 98.3841 196.228 98.1445 195.643 97.8505C195.105 97.5486 194.587 97.2118 194.093 96.8422C193.618 96.4792 193.113 96.1583 192.582 95.8832C192.038 95.6496 191.473 95.4651 190.896 95.3319C190.291 95.1853 189.697 94.998 189.117 94.7711C188.579 94.5478 188.07 94.288 187.577 94.0367C187.014 93.7332 186.432 93.4657 185.835 93.2359C185.292 93.0417 184.772 92.8107 184.269 92.5874C183.683 92.3118 183.081 92.0723 182.466 91.8702C181.891 91.7192 181.304 91.6193 180.712 91.5716C180.092 91.5148 179.477 91.4168 178.87 91.278C178.45 91.173 178.031 91.0595 177.612 90.946C176.839 90.7366 176.11 90.5389 175.362 90.3913C174.239 90.1688 173.03 89.9382 171.799 89.7571C171.178 89.6825 170.554 89.65 169.929 89.66C169.363 89.6555 168.777 89.6509 168.179 89.5925C167.489 89.5255 166.794 89.5157 166.057 89.5057C165.565 89.499 165.071 89.4919 164.574 89.4679C163.884 89.41 163.204 89.2643 162.55 89.0342C162.043 88.8479 161.512 88.7336 160.974 88.6944C160.433 88.7327 159.9 88.8453 159.389 89.0292C158.737 89.2543 158.06 89.3972 157.373 89.4544C156.708 89.4672 156.044 89.4153 155.39 89.2994C154.945 89.2226 154.494 89.1772 154.043 89.1635Z" fill="#181C56"/>
<path d="M138.911 153.501L159.216 170.832C163.135 174.452 158.194 180.257 153.993 176.952C153.815 176.798 153.65 176.63 153.499 176.449L136.532 155.838C136.271 155.514 136.14 155.105 136.164 154.689C136.188 154.274 136.366 153.883 136.662 153.592C136.959 153.3 137.354 153.129 137.769 153.113C138.184 153.096 138.591 153.234 138.911 153.501Z" fill="#181C56"/>
<path d="M189.539 137.691L160.322 176.806C156.978 180.938 150.874 176.404 153.892 172.004C154.222 171.526 186.852 136.175 187.197 135.748C187.463 135.466 187.826 135.295 188.213 135.271C188.6 135.248 188.982 135.372 189.28 135.62C189.579 135.867 189.772 136.219 189.82 136.604C189.868 136.989 189.767 137.377 189.539 137.691Z" fill="#181C56"/>
<path d="M201.853 121.514C200.352 123.707 198.557 125.684 196.517 127.389C195.845 127.974 195.13 128.508 194.379 128.987C194.314 129.028 194.238 129.045 194.162 129.036C194.086 129.027 194.015 128.993 193.961 128.939C193.907 128.885 193.873 128.815 193.865 128.739C193.856 128.663 193.873 128.586 193.913 128.522C194.894 127.043 196.032 125.675 197.307 124.442C198.547 123.174 199.914 122.036 201.387 121.048C201.452 121.009 201.528 120.993 201.603 121.002C201.678 121.011 201.748 121.045 201.802 121.099C201.855 121.152 201.889 121.222 201.899 121.297C201.908 121.373 201.892 121.449 201.853 121.513V121.514Z" fill="#FFBF9E"/>
<path d="M128.034 195.333C126.534 197.526 124.739 199.503 122.699 201.208C122.027 201.793 121.312 202.327 120.561 202.806C120.496 202.846 120.419 202.863 120.343 202.855C120.268 202.846 120.197 202.812 120.143 202.758C120.089 202.704 120.055 202.633 120.046 202.558C120.037 202.482 120.055 202.405 120.095 202.34C121.076 200.862 122.214 199.494 123.489 198.261C124.729 196.993 126.096 195.855 127.569 194.867C127.634 194.828 127.71 194.812 127.785 194.821C127.86 194.83 127.93 194.864 127.984 194.918C128.037 194.971 128.071 195.041 128.08 195.116C128.09 195.191 128.073 195.267 128.034 195.332V195.333Z" fill="#FFBF9E"/>
<path d="M201.387 202.807C199.193 201.306 197.216 199.511 195.512 197.471C194.927 196.799 194.393 196.084 193.913 195.333C193.873 195.268 193.856 195.191 193.864 195.115C193.873 195.04 193.907 194.969 193.961 194.915C194.015 194.861 194.086 194.827 194.162 194.818C194.238 194.809 194.314 194.827 194.379 194.867C195.857 195.848 197.225 196.986 198.459 198.261C199.727 199.501 200.865 200.868 201.853 202.341C201.892 202.406 201.908 202.482 201.899 202.557C201.89 202.632 201.856 202.702 201.802 202.756C201.749 202.809 201.679 202.843 201.604 202.852C201.528 202.862 201.452 202.846 201.388 202.807H201.387Z" fill="#FFBF9E"/>
<path d="M127.568 128.987C125.374 127.487 123.397 125.692 121.692 123.652C121.107 122.98 120.573 122.265 120.094 121.514C120.054 121.449 120.036 121.372 120.045 121.297C120.054 121.221 120.088 121.15 120.142 121.096C120.196 121.042 120.267 121.008 120.342 120.999C120.418 120.991 120.495 121.008 120.56 121.048C122.038 122.029 123.406 123.167 124.64 124.442C125.908 125.682 127.045 127.049 128.033 128.522C128.072 128.587 128.088 128.663 128.079 128.738C128.07 128.813 128.036 128.883 127.982 128.936C127.929 128.99 127.859 129.024 127.784 129.033C127.709 129.043 127.633 129.026 127.568 128.987H127.568Z" fill="#FFBF9E"/>
<path d="M218.456 162.257C215.844 162.747 213.176 162.876 210.529 162.639C209.64 162.577 208.757 162.449 207.887 162.257C207.812 162.239 207.746 162.198 207.698 162.138C207.651 162.078 207.625 162.004 207.625 161.928C207.625 161.851 207.651 161.777 207.698 161.717C207.746 161.658 207.812 161.616 207.887 161.598C209.626 161.247 211.397 161.084 213.171 161.113C214.945 161.094 216.716 161.256 218.456 161.598C218.529 161.617 218.595 161.659 218.641 161.719C218.688 161.778 218.713 161.852 218.713 161.928C218.713 162.003 218.688 162.077 218.641 162.136C218.595 162.196 218.529 162.238 218.456 162.257Z" fill="#FFBF9E"/>
<path d="M114.06 162.257C111.448 162.747 108.781 162.876 106.133 162.638C105.244 162.577 104.361 162.449 103.491 162.257C103.417 162.239 103.35 162.197 103.303 162.138C103.255 162.078 103.229 162.004 103.229 161.928C103.229 161.851 103.255 161.777 103.303 161.717C103.35 161.658 103.417 161.616 103.491 161.598C105.23 161.247 107.002 161.084 108.776 161.113C110.549 161.094 112.32 161.256 114.06 161.598C114.134 161.617 114.199 161.659 114.246 161.719C114.292 161.778 114.318 161.852 114.318 161.928C114.318 162.003 114.292 162.077 114.246 162.136C114.199 162.196 114.134 162.238 114.06 162.257Z" fill="#FFBF9E"/>
<path d="M161.302 104.444C161.793 107.057 161.921 109.724 161.684 112.372C161.622 113.261 161.495 114.144 161.302 115.014C161.285 115.088 161.243 115.155 161.183 115.202C161.123 115.25 161.049 115.276 160.973 115.276C160.897 115.276 160.823 115.25 160.763 115.202C160.703 115.155 160.661 115.088 160.644 115.014C160.292 113.275 160.129 111.503 160.159 109.729C160.139 107.956 160.301 106.185 160.644 104.444C160.662 104.371 160.705 104.306 160.764 104.259C160.824 104.213 160.897 104.188 160.973 104.188C161.049 104.188 161.122 104.213 161.182 104.259C161.241 104.306 161.284 104.371 161.302 104.444Z" fill="#FFBF9E"/>
<path d="M161.302 208.841C161.793 211.453 161.921 214.12 161.684 216.768C161.622 217.657 161.495 218.54 161.302 219.41C161.285 219.484 161.243 219.551 161.183 219.598C161.123 219.646 161.049 219.671 160.973 219.671C160.897 219.671 160.823 219.646 160.763 219.598C160.703 219.551 160.661 219.484 160.644 219.41C160.292 217.671 160.129 215.899 160.159 214.125C160.139 212.352 160.301 210.581 160.644 208.841C160.662 208.767 160.704 208.702 160.764 208.655C160.824 208.609 160.897 208.583 160.973 208.583C161.049 208.583 161.122 208.609 161.182 208.655C161.241 208.702 161.284 208.767 161.302 208.841Z" fill="#FFBF9E"/>
<path d="M160.974 227.376C159.479 227.376 157.927 227.321 156.361 227.21C155.769 227.168 155.168 227.17 154.532 227.173C153.595 227.199 152.657 227.156 151.725 227.045C150.265 226.837 148.729 226.56 147.16 226.22C146.237 225.999 145.331 225.711 144.45 225.358C143.864 225.139 143.31 224.933 142.753 224.769C141.851 224.484 140.971 224.134 140.12 223.723C139.556 223.467 139.023 223.225 138.48 223.022C137.876 222.824 137.254 222.682 136.623 222.598C135.703 222.484 134.803 222.248 133.946 221.896C133.117 221.485 132.332 220.991 131.603 220.421C131.104 220.038 130.581 219.688 130.037 219.372C128.766 218.676 127.553 217.895 126.381 217.139L126.11 216.964C125.151 216.347 124.259 215.66 123.395 214.996C123.066 214.743 122.737 214.489 122.403 214.239C121.983 213.924 121.554 213.623 121.126 213.322C120.289 212.754 119.482 212.143 118.707 211.493C117.529 210.471 116.394 209.415 115.333 208.355C114.876 207.92 114.391 207.515 113.881 207.142C113.131 206.604 112.438 205.992 111.812 205.313C111.23 204.598 110.725 203.823 110.305 203.003C110.012 202.442 109.681 201.902 109.315 201.385C108.674 200.531 108.123 199.632 107.59 198.762C107.335 198.347 107.081 197.931 106.816 197.519C106.613 197.204 106.408 196.892 106.203 196.58C105.582 195.635 104.94 194.658 104.373 193.621C103.59 192.191 102.913 190.846 102.302 189.509C101.84 188.5 101.471 187.463 101.115 186.46C100.966 186.044 100.818 185.627 100.663 185.21C100.456 184.657 100.197 184.114 99.9227 183.539C99.4994 182.707 99.1439 181.842 98.8598 180.954C98.6973 180.399 98.494 179.848 98.2788 179.264C97.9287 178.377 97.6417 177.467 97.4198 176.54C97.2524 175.636 97.1761 174.717 97.1919 173.798C97.1963 173.164 97.1613 172.53 97.0869 171.901C97.0036 171.316 96.8579 170.722 96.704 170.094C96.4568 169.195 96.2875 168.276 96.1982 167.347C96.1169 166.196 96.1286 165.03 96.1398 163.903C96.1438 163.507 96.1477 163.111 96.1477 162.715C96.1477 162.376 96.1456 162.037 96.1435 161.699C96.1359 160.515 96.1285 159.29 96.2133 158.084C96.3027 157.156 96.472 156.237 96.7193 155.338C96.8735 154.71 97.0191 154.117 97.1024 153.532C97.2874 152.235 97.5653 150.97 97.8341 149.748L97.9945 149.015C98.1107 148.389 98.1806 147.756 98.2036 147.12C98.2282 146.201 98.3563 145.287 98.5855 144.396C98.8724 143.494 99.2254 142.614 99.6417 141.764C99.905 141.192 100.154 140.652 100.358 140.106C100.717 139.195 101.129 138.306 101.593 137.444C101.859 136.927 102.11 136.438 102.339 135.937C102.584 135.401 102.79 134.842 103.009 134.25C103.313 133.363 103.682 132.499 104.114 131.667C104.642 130.702 105.249 129.795 105.836 128.917C106.092 128.535 106.347 128.154 106.596 127.768L106.679 127.639C107.468 126.413 108.284 125.146 109.184 123.945C109.537 123.474 109.859 122.97 110.201 122.437C110.689 121.632 111.236 120.863 111.837 120.138C112.923 118.886 113.984 117.74 114.992 116.733C115.663 116.099 116.395 115.534 117.178 115.044C117.708 114.705 118.218 114.333 118.704 113.932C119.99 112.816 121.088 111.892 122.267 111.008C122.725 110.665 123.164 110.294 123.63 109.902C124.349 109.268 125.109 108.682 125.905 108.147C126.754 107.621 127.63 107.141 128.531 106.71C129.036 106.457 129.513 106.218 129.984 105.961C130.939 105.438 131.931 105.006 132.89 104.589C133.317 104.403 133.745 104.217 134.17 104.023C134.732 103.75 135.278 103.445 135.804 103.11C136.581 102.604 137.404 102.174 138.263 101.826C139.22 101.487 140.194 101.198 141.18 100.96C141.695 100.827 142.21 100.693 142.719 100.544C144.041 100.157 145.607 99.7137 147.194 99.3702C147.521 99.2991 147.85 99.2265 148.178 99.1526C149.331 98.8951 150.522 98.6291 151.735 98.4561C152.771 98.3084 153.817 98.2613 154.829 98.2159C155.338 98.193 155.847 98.1703 156.355 98.1345C156.857 98.0991 157.361 98.0501 157.866 98.0009C158.873 97.903 159.914 97.8018 160.974 97.8018C161.899 97.8315 162.818 97.965 163.713 98.1999C164.321 98.3534 164.94 98.4619 165.565 98.5247C166.203 98.5493 166.842 98.5229 167.475 98.4459C168.385 98.3271 169.306 98.3165 170.218 98.4142C171.132 98.5782 172.023 98.8565 172.867 99.2426C173.442 99.499 174.037 99.706 174.647 99.8612C175.206 99.9823 175.768 100.073 176.363 100.168C177.31 100.3 178.248 100.492 179.171 100.743L179.22 100.758C180.651 101.177 182.13 101.611 183.565 102.147C184.11 102.35 184.671 102.519 185.265 102.698C186.181 102.953 187.078 103.27 187.951 103.647C188.964 104.11 189.931 104.659 190.865 105.19C191.253 105.41 191.64 105.63 192.029 105.843C192.827 106.308 193.581 106.847 194.28 107.45C194.755 107.852 195.251 108.228 195.768 108.576L196.279 108.904C197.373 109.606 198.503 110.331 199.583 111.14C200.056 111.495 200.563 111.816 201.099 112.155C201.901 112.635 202.665 113.175 203.385 113.771C204.069 114.395 204.698 115.076 205.265 115.807C205.676 116.308 206.064 116.781 206.487 117.203C207.594 118.31 208.625 119.485 209.586 120.594C209.947 121.01 210.323 121.407 210.721 121.827C211.406 122.524 212.051 123.26 212.651 124.032C213.277 124.866 213.809 125.747 214.324 126.598C214.589 127.037 214.855 127.477 215.134 127.91C215.484 128.428 215.865 128.924 216.274 129.397C216.884 130.09 217.426 130.839 217.892 131.636C218.495 132.739 219.015 133.89 219.518 135.003L219.885 135.812C220.039 136.148 220.196 136.483 220.353 136.819C220.839 137.857 221.342 138.931 221.757 140.044C222.073 140.947 222.33 141.87 222.527 142.807C222.665 143.402 222.795 143.964 222.957 144.516C223.146 145.111 223.37 145.694 223.627 146.263C224.018 147.105 224.327 147.984 224.549 148.886C224.719 149.793 224.806 150.713 224.808 151.636C224.816 152.266 224.858 152.894 224.935 153.519C225.015 154.084 225.131 154.649 225.254 155.248C225.467 156.183 225.617 157.131 225.704 158.086C225.742 159.002 225.694 159.918 225.561 160.824C225.475 161.451 225.425 162.083 225.411 162.715C225.411 164.019 225.317 165.299 225.226 166.536L225.122 167.995C225.036 169.267 224.946 170.583 224.76 171.886C224.678 172.464 224.632 173.046 224.583 173.662C224.529 174.607 224.411 175.547 224.23 176.476C224.136 176.914 224.048 177.354 223.96 177.793C223.749 178.845 223.532 179.931 223.221 180.993C223.094 181.426 222.974 181.863 222.854 182.299C222.569 183.333 222.274 184.402 221.888 185.436C221.54 186.296 221.112 187.123 220.611 187.904C220.28 188.432 219.978 188.977 219.706 189.539C219.465 190.067 219.256 190.613 219.035 191.191C218.715 192.085 218.335 192.956 217.896 193.799C217.161 195.144 216.339 196.436 215.491 197.753C214.97 198.519 214.383 199.239 213.738 199.905C213.3 200.382 212.887 200.833 212.529 201.31C212.164 201.824 211.832 202.36 211.535 202.916C211.109 203.732 210.602 204.502 210.02 205.215C209.395 205.891 208.696 206.495 207.938 207.017C207.421 207.381 206.931 207.781 206.471 208.214C206.038 208.674 205.638 209.165 205.276 209.683C204.756 210.443 204.152 211.142 203.476 211.767C202.454 212.653 201.304 213.572 199.856 214.657C199.044 215.245 198.201 215.789 197.33 216.287C196.849 216.574 196.394 216.845 195.945 217.133C194.649 217.968 193.313 218.763 191.977 219.494C190.406 220.354 189.097 221.018 187.858 221.585C187.331 221.826 186.813 222.107 186.266 222.404C185.44 222.877 184.582 223.291 183.698 223.643C182.77 223.97 181.824 224.242 180.865 224.46C180.297 224.6 179.76 224.732 179.229 224.888C178.323 225.132 177.401 225.309 176.469 225.419C175.845 225.507 175.256 225.59 174.678 225.715C173.086 226.06 171.492 226.303 170.144 226.495C169.603 226.572 169.066 226.673 168.499 226.78C167.537 226.979 166.564 227.123 165.586 227.209C164.01 227.32 162.458 227.376 160.974 227.376ZM154.972 224.853C155.481 224.853 156.001 224.86 156.524 224.897C158.036 225.004 159.533 225.058 160.974 225.058C162.404 225.058 163.901 225.003 165.423 224.896C166.312 224.815 167.196 224.684 168.07 224.501C168.638 224.394 169.225 224.284 169.817 224.199C171.125 224.013 172.667 223.778 174.188 223.449C174.848 223.306 175.507 223.213 176.144 223.122C176.965 223.027 177.778 222.874 178.577 222.663C179.156 222.493 179.743 222.349 180.31 222.209C181.182 222.012 182.043 221.765 182.888 221.47C183.67 221.155 184.429 220.786 185.16 220.366C185.718 220.063 186.295 219.75 186.894 219.476C188.081 218.933 189.342 218.293 190.864 217.46C192.152 216.755 193.44 215.989 194.69 215.184C195.172 214.873 195.667 214.579 196.144 214.295C196.944 213.839 197.718 213.34 198.465 212.802C199.868 211.751 200.977 210.865 201.957 210.015C202.502 209.499 202.989 208.925 203.412 208.305C203.841 207.694 204.316 207.115 204.832 206.575C205.371 206.06 205.948 205.585 206.557 205.155C207.177 204.731 207.751 204.242 208.268 203.696C208.746 203.099 209.164 202.456 209.515 201.777C209.861 201.133 210.248 200.513 210.674 199.919C211.101 199.351 211.573 198.836 212.029 198.338C212.584 197.768 213.09 197.152 213.542 196.498C214.366 195.218 215.163 193.964 215.863 192.686C216.25 191.935 216.586 191.159 216.869 190.363C217.094 189.776 217.326 189.17 217.598 188.574C217.905 187.934 218.247 187.312 218.623 186.71C219.049 186.05 219.415 185.352 219.716 184.625C220.066 183.687 220.334 182.714 220.618 181.683C220.742 181.234 220.866 180.786 220.996 180.341C221.279 179.377 221.477 178.387 221.686 177.339C221.777 176.887 221.867 176.436 221.964 175.986C222.122 175.158 222.225 174.321 222.272 173.479C222.321 172.855 222.372 172.209 222.465 171.56C222.639 170.341 222.722 169.125 222.809 167.838L222.914 166.366C223.006 165.115 223.093 163.934 223.093 162.716C223.106 161.993 223.161 161.273 223.258 160.557C223.372 159.794 223.417 159.021 223.391 158.25C223.31 157.397 223.174 156.55 222.982 155.714C222.858 155.108 222.729 154.482 222.639 153.847C222.55 153.138 222.501 152.425 222.491 151.71C222.491 150.928 222.422 150.147 222.283 149.377C222.09 148.62 221.826 147.882 221.494 147.174C221.201 146.521 220.946 145.852 220.732 145.169C220.551 144.552 220.407 143.931 220.268 143.331C220.093 142.492 219.865 141.665 219.585 140.856C219.202 139.83 218.719 138.799 218.253 137.803C218.093 137.46 217.933 137.119 217.777 136.777L217.405 135.958C216.92 134.885 216.418 133.775 215.858 132.75C215.461 132.084 215.002 131.457 214.488 130.877C214.019 130.333 213.584 129.762 213.184 129.166C212.894 128.714 212.617 128.256 212.34 127.799C211.832 126.959 211.352 126.166 210.795 125.423C210.248 124.723 209.661 124.055 209.038 123.422C208.64 123.002 208.229 122.568 207.834 122.114C206.862 120.992 205.901 119.897 204.847 118.843C204.344 118.341 203.901 117.801 203.473 117.279C202.987 116.65 202.449 116.063 201.866 115.523C201.233 115.004 200.563 114.534 199.86 114.115C199.309 113.767 198.739 113.406 198.192 112.996C197.18 112.237 196.134 111.567 195.027 110.856L194.512 110.526C193.924 110.132 193.358 109.706 192.817 109.25C192.225 108.736 191.589 108.277 190.916 107.878C190.516 107.659 190.119 107.433 189.72 107.207C188.829 106.701 187.908 106.177 186.986 105.756C186.209 105.423 185.41 105.144 184.595 104.919C183.992 104.737 183.369 104.549 182.755 104.32C181.398 103.813 180.023 103.41 178.567 102.984L178.518 102.969C177.689 102.746 176.846 102.575 175.995 102.458C175.396 102.362 174.777 102.263 174.156 102.128C173.413 101.946 172.688 101.699 171.989 101.389C171.319 101.08 170.615 100.852 169.891 100.711C169.157 100.643 168.419 100.658 167.688 100.756C166.93 100.846 166.165 100.873 165.402 100.839C164.661 100.769 163.927 100.644 163.205 100.463C162.476 100.269 161.728 100.155 160.973 100.121C160.027 100.121 159.086 100.213 158.09 100.31C157.564 100.361 157.04 100.412 156.518 100.448C155.991 100.486 155.462 100.51 154.933 100.533C153.932 100.578 152.987 100.621 152.062 100.753C150.939 100.913 149.793 101.169 148.684 101.416C148.35 101.491 148.017 101.565 147.684 101.637C146.17 101.965 144.654 102.394 143.371 102.771C142.839 102.926 142.3 103.066 141.762 103.206C140.853 103.424 139.955 103.689 139.074 103.999C138.353 104.299 137.662 104.664 137.01 105.092C136.406 105.475 135.78 105.823 135.135 106.132C134.697 106.332 134.256 106.524 133.815 106.716C132.861 107.131 131.96 107.523 131.097 107.996C130.589 108.274 130.07 108.533 129.569 108.784C128.743 109.178 127.939 109.616 127.16 110.097C126.449 110.579 125.769 111.106 125.125 111.675C124.655 112.071 124.17 112.481 123.658 112.864C122.535 113.707 121.473 114.601 120.223 115.684C119.666 116.149 119.08 116.579 118.47 116.971C117.814 117.379 117.199 117.848 116.632 118.373C115.663 119.342 114.639 120.447 113.59 121.658C113.063 122.299 112.584 122.977 112.154 123.687C111.805 124.233 111.444 124.797 111.04 125.337C110.189 126.471 109.396 127.704 108.629 128.895L108.546 129.024C108.29 129.421 108.027 129.815 107.764 130.208C107.179 131.082 106.627 131.907 106.149 132.78C105.773 133.514 105.45 134.274 105.185 135.055C104.961 135.66 104.73 136.287 104.448 136.902C104.197 137.451 103.922 137.987 103.656 138.504C103.234 139.286 102.858 140.092 102.531 140.918C102.297 141.545 102.018 142.15 101.748 142.735C101.381 143.483 101.067 144.257 100.811 145.05C100.634 145.776 100.536 146.519 100.518 147.267C100.489 148.019 100.404 148.767 100.261 149.506L100.099 150.246C99.8278 151.482 99.5713 152.649 99.3986 153.86C99.299 154.559 99.1326 155.237 98.9715 155.892C98.7575 156.664 98.6088 157.452 98.5269 158.248C98.4482 159.366 98.4553 160.492 98.4629 161.685C98.465 162.029 98.4672 162.372 98.4672 162.716C98.4672 163.12 98.4629 163.524 98.4591 163.927C98.4478 165.059 98.437 166.127 98.5118 167.185C98.5937 167.982 98.7424 168.771 98.9564 169.543C99.1172 170.198 99.2835 170.876 99.383 171.575C99.4722 172.301 99.5148 173.032 99.5108 173.764C99.4954 174.53 99.5543 175.296 99.6866 176.05C99.8865 176.871 100.143 177.677 100.455 178.463C100.674 179.057 100.901 179.672 101.086 180.302C101.336 181.072 101.647 181.821 102.016 182.541C102.3 183.136 102.594 183.752 102.836 184.4C102.995 184.828 103.148 185.257 103.3 185.684C103.655 186.684 103.991 187.628 104.411 188.546C104.999 189.831 105.652 191.128 106.408 192.509C106.93 193.464 107.519 194.359 108.141 195.307C108.35 195.626 108.558 195.945 108.766 196.265C109.04 196.691 109.304 197.121 109.568 197.551C110.096 198.414 110.595 199.228 111.171 199.995C111.601 200.596 111.99 201.225 112.334 201.879C112.678 202.557 113.091 203.199 113.565 203.795C114.09 204.353 114.669 204.859 115.294 205.304C115.884 205.737 116.445 206.209 116.973 206.716C118.009 207.752 119.074 208.742 120.227 209.742C120.942 210.341 121.688 210.903 122.46 211.426C122.908 211.74 123.356 212.055 123.795 212.385C124.136 212.641 124.473 212.9 124.81 213.159C125.674 213.824 126.489 214.451 127.366 215.016L127.638 215.191C128.828 215.958 129.953 216.683 131.15 217.338C131.783 217.702 132.392 218.106 132.972 218.55C133.576 219.025 134.226 219.44 134.911 219.788C135.585 220.05 136.288 220.226 137.006 220.312C137.783 220.417 138.548 220.597 139.291 220.85C139.91 221.081 140.505 221.352 141.08 221.613C141.832 221.978 142.61 222.289 143.406 222.545C144.043 222.732 144.662 222.963 145.261 223.186C146.039 223.499 146.837 223.755 147.651 223.954C149.166 224.282 150.647 224.55 152.053 224.75C152.873 224.844 153.698 224.879 154.523 224.855C154.671 224.854 154.821 224.853 154.972 224.853Z" fill="#181C56"/>
</svg>
